<?xml version="1.0" encoding="UTF-8" standalone="no"?>
<!DOCTYPE svg PUBLIC "-//W3C//DTD SVG 1.1//EN"
 "http://www.w3.org/Graphics/SVG/1.1/DTD/svg11.dtd">
<!-- Generated by graphviz version 14.1.1 (20251213.1925)
 -->
<!-- Title: G Pages: 1 -->
<svg width="1250pt" height="1026pt"
 viewBox="0.00 0.00 1250.00 1026.00" xmlns="http://www.w3.org/2000/svg" xmlns:xlink="http://www.w3.org/1999/xlink">
<g id="graph0" class="graph" transform="scale(1 1) rotate(0) translate(4 1022.04)">
<title>G</title>
<polygon fill="white" stroke="none" points="-4,4 -4,-1022.04 1245.95,-1022.04 1245.95,4 -4,4"/>
<!-- 0x140001901e0 -->
<g id="node1" class="node">
<title>0x140001901e0</title>
<ellipse fill="none" stroke="black" stroke-width="2" cx="569.51" cy="-977.38" rx="224.51" ry="40.66"/>
<text xml:space="preserve" text-anchor="middle" x="569.51" y="-988.83" font-family="Times,serif" font-size="14.00">yield</text>
<text xml:space="preserve" text-anchor="middle" x="569.51" y="-972.33" font-family="Times,serif" font-size="14.00">Actions: 0, Forks: 0</text>
<text xml:space="preserve" text-anchor="middle" x="569.51" y="-955.83" font-family="Times,serif" font-size="14.00">State: {&quot;counter&quot;:&quot;role Counter#0 (fields(value = 0))&quot;}</text>
</g>
<!-- 0x140001901e0&#45;&gt;0x140001901e0 -->
<g id="edge24" class="edge">
<title>0x140001901e0&#45;&gt;0x140001901e0</title>
<path fill="none" stroke="black" d="M789.58,-986.23C803.57,-984.15 812.01,-981.2 812.01,-977.38 812.01,-974.69 807.84,-972.44 800.5,-970.61"/>
<polygon fill="black" stroke="black" points="801.54,-967.25 791.07,-968.82 800.23,-974.13 801.54,-967.25"/>
<text xml:space="preserve" text-anchor="middle" x="853.26" y="-972.33" font-family="Times,serif" font-size="14.00">Counter#0.Dec</text>
</g>
<!-- 0x14000190840 -->
<g id="node2" class="node">
<title>0x14000190840</title>
<ellipse fill="none" stroke="black" stroke-width="2" cx="224.51" cy="-709.75" rx="224.51" ry="40.66"/>
<text xml:space="preserve" text-anchor="middle" x="224.51" y="-721.2" font-family="Times,serif" font-size="14.00">yield</text>
<text xml:space="preserve" text-anchor="middle" x="224.51" y="-704.7" font-family="Times,serif" font-size="14.00">Actions: 1, Forks: 1</text>
<text xml:space="preserve" text-anchor="middle" x="224.51" y="-688.2" font-family="Times,serif" font-size="14.00">State: {&quot;counter&quot;:&quot;role Counter#0 (fields(value = 1))&quot;}</text>
</g>
<!-- 0x140001901e0&#45;&gt;0x14000190840 -->
<g id="edge1" class="edge">
<title>0x140001901e0&#45;&gt;0x14000190840</title>
<path fill="none" stroke="black" d="M362.42,-960.96C259.94,-948.23 152.27,-925.27 124.51,-884.22 104.26,-854.28 110,-836 124.51,-802.9 132.03,-785.73 144.51,-770.35 158.15,-757.29"/>
<polygon fill="black" stroke="black" points="160.13,-760.22 165.16,-750.89 155.42,-755.04 160.13,-760.22"/>
<text xml:space="preserve" text-anchor="middle" x="163.51" y="-838.51" font-family="Times,serif" font-size="14.00">Counter#0.Inc</text>
</g>
<!-- 0x14000190900 -->
<g id="node8" class="node">
<title>0x14000190900</title>
<ellipse fill="none" stroke="black" stroke-width="2" cx="675.51" cy="-843.56" rx="350.19" ry="40.66"/>
<text xml:space="preserve" text-anchor="middle" x="675.51" y="-855.01" font-family="Times,serif" font-size="14.00">yield</text>
<text xml:space="preserve" text-anchor="middle" x="675.51" y="-838.51" font-family="Times,serif" font-size="14.00">Actions: 1, Forks: 1</text>
<text xml:space="preserve" text-anchor="middle" x="675.51" y="-822.01" font-family="Times,serif" font-size="14.00">State: {&quot;counter&quot;:&quot;role Counter#0 (fields(value = 0))&quot;}Returns: {&quot;Counter#0.Get&quot;:&quot;0&quot;}</text>
</g>
<!-- 0x140001901e0&#45;&gt;0x14000190900 -->
<g id="edge20" class="edge">
<title>0x140001901e0&#45;&gt;0x14000190900</title>
<path fill="none" stroke="black" d="M635.86,-937.64C642.44,-931.91 648.51,-925.59 653.51,-918.72 658.5,-911.85 662.38,-903.84 665.37,-895.69"/>
<polygon fill="black" stroke="black" points="668.63,-896.99 668.36,-886.39 661.97,-894.84 668.63,-896.99"/>
<text xml:space="preserve" text-anchor="middle" x="702.86" y="-905.42" font-family="Times,serif" font-size="14.00">Counter#0.Get</text>
</g>
<!-- 0x14000190840&#45;&gt;0x140001901e0 -->
<g id="edge19" class="edge">
<title>0x14000190840&#45;&gt;0x140001901e0</title>
<path fill="none" stroke="black" d="M214.46,-751.24C207.48,-789.74 204.09,-847.13 234.01,-884.22 255.38,-910.72 322.97,-931.75 391.95,-946.99"/>
<polygon fill="black" stroke="black" points="391.03,-950.37 401.54,-949.07 392.51,-943.53 391.03,-950.37"/>
<text xml:space="preserve" text-anchor="middle" x="275.26" y="-838.51" font-family="Times,serif" font-size="14.00">Counter#0.Dec</text>
</g>
<!-- 0x14000190d20 -->
<g id="node3" class="node">
<title>0x14000190d20</title>
<ellipse fill="none" stroke="black" stroke-width="2" cx="642.51" cy="-442.11" rx="224.51" ry="40.66"/>
<text xml:space="preserve" text-anchor="middle" x="642.51" y="-453.56" font-family="Times,serif" font-size="14.00">yield</text>
<text xml:space="preserve" text-anchor="middle" x="642.51" y="-437.06" font-family="Times,serif" font-size="14.00">Actions: 2, Forks: 2</text>
<text xml:space="preserve" text-anchor="middle" x="642.51" y="-420.56" font-family="Times,serif" font-size="14.00">State: {&quot;counter&quot;:&quot;role Counter#0 (fields(value = 2))&quot;}</text>
</g>
<!-- 0x14000190840&#45;&gt;0x14000190d20 -->
<g id="edge2" class="edge">
<title>0x14000190840&#45;&gt;0x14000190d20</title>
<path fill="none" stroke="black" d="M205.03,-668.29C189.66,-629.81 175.35,-572.45 205.51,-535.27 235.05,-498.85 334.24,-476.27 430.67,-462.58"/>
<polygon fill="black" stroke="black" points="430.87,-466.09 440.3,-461.25 429.91,-459.16 430.87,-466.09"/>
<text xml:space="preserve" text-anchor="middle" x="244.51" y="-570.88" font-family="Times,serif" font-size="14.00">Counter#0.Inc</text>
</g>
<!-- 0x14000190de0 -->
<g id="node7" class="node">
<title>0x14000190de0</title>
<ellipse fill="none" stroke="black" stroke-width="2" cx="642.51" cy="-575.93" rx="350.19" ry="40.66"/>
<text xml:space="preserve" text-anchor="middle" x="642.51" y="-587.38" font-family="Times,serif" font-size="14.00">yield</text>
<text xml:space="preserve" text-anchor="middle" x="642.51" y="-570.88" font-family="Times,serif" font-size="14.00">Actions: 2, Forks: 2</text>
<text xml:space="preserve" text-anchor="middle" x="642.51" y="-554.38" font-family="Times,serif" font-size="14.00">State: {&quot;counter&quot;:&quot;role Counter#0 (fields(value = 1))&quot;}Returns: {&quot;Counter#0.Get&quot;:&quot;1&quot;}</text>
</g>
<!-- 0x14000190840&#45;&gt;0x14000190de0 -->
<g id="edge15" class="edge">
<title>0x14000190840&#45;&gt;0x14000190de0</title>
<path fill="none" stroke="black" d="M335.97,-673.59C389.82,-656.61 454.8,-636.12 511.05,-618.38"/>
<polygon fill="black" stroke="black" points="511.89,-621.79 520.37,-615.44 509.78,-615.11 511.89,-621.79"/>
<text xml:space="preserve" text-anchor="middle" x="498.66" y="-637.79" font-family="Times,serif" font-size="14.00">Counter#0.Get</text>
</g>
<!-- 0x14000190d20&#45;&gt;0x14000190840 -->
<g id="edge14" class="edge">
<title>0x14000190d20&#45;&gt;0x14000190840</title>
<path fill="none" stroke="black" d="M850.22,-458.27C1008.52,-477.53 1185.81,-520.72 1099.51,-616.59 1057,-663.81 700.14,-688.58 455.5,-700.13"/>
<polygon fill="black" stroke="black" points="455.64,-696.62 445.81,-700.58 455.97,-703.61 455.64,-696.62"/>
<text xml:space="preserve" text-anchor="middle" x="1163.37" y="-570.88" font-family="Times,serif" font-size="14.00">Counter#0.Dec</text>
</g>
<!-- 0x140001917a0 -->
<g id="node4" class="node">
<title>0x140001917a0</title>
<ellipse fill="none" stroke="black" stroke-width="2" cx="692.51" cy="-174.48" rx="224.51" ry="40.66"/>
<text xml:space="preserve" text-anchor="middle" x="692.51" y="-185.93" font-family="Times,serif" font-size="14.00">yield</text>
<text xml:space="preserve" text-anchor="middle" x="692.51" y="-169.43" font-family="Times,serif" font-size="14.00">Actions: 3, Forks: 3</text>
<text xml:space="preserve" text-anchor="middle" x="692.51" y="-152.93" font-family="Times,serif" font-size="14.00">State: {&quot;counter&quot;:&quot;role Counter#0 (fields(value = 3))&quot;}</text>
</g>
<!-- 0x14000190d20&#45;&gt;0x140001917a0 -->
<g id="edge3" class="edge">
<title>0x14000190d20&#45;&gt;0x140001917a0</title>
<path fill="none" stroke="black" d="M422.76,-432.98C245.11,-418.37 38.77,-378.06 132.51,-267.63 175.18,-217.36 326.35,-194.46 460.87,-184.06"/>
<polygon fill="black" stroke="black" points="460.95,-187.56 470.66,-183.33 460.43,-180.58 460.95,-187.56"/>
<text xml:space="preserve" text-anchor="middle" x="171.51" y="-303.24" font-family="Times,serif" font-size="14.00">Counter#0.Inc</text>
</g>
<!-- 0x14000191860 -->
<g id="node6" class="node">
<title>0x14000191860</title>
<ellipse fill="none" stroke="black" stroke-width="2" cx="569.51" cy="-308.29" rx="350.19" ry="40.66"/>
<text xml:space="preserve" text-anchor="middle" x="569.51" y="-319.74" font-family="Times,serif" font-size="14.00">yield</text>
<text xml:space="preserve" text-anchor="middle" x="569.51" y="-303.24" font-family="Times,serif" font-size="14.00">Actions: 3, Forks: 3</text>
<text xml:space="preserve" text-anchor="middle" x="569.51" y="-286.74" font-family="Times,serif" font-size="14.00">State: {&quot;counter&quot;:&quot;role Counter#0 (fields(value = 2))&quot;}Returns: {&quot;Counter#0.Get&quot;:&quot;2&quot;}</text>
</g>
<!-- 0x14000190d20&#45;&gt;0x14000191860 -->
<g id="edge10" class="edge">
<title>0x14000190d20&#45;&gt;0x14000191860</title>
<path fill="none" stroke="black" d="M620.21,-400.84C612.99,-387.81 604.89,-373.18 597.32,-359.51"/>
<polygon fill="black" stroke="black" points="600.56,-358.14 592.65,-351.09 594.44,-361.53 600.56,-358.14"/>
<text xml:space="preserve" text-anchor="middle" x="650.5" y="-370.15" font-family="Times,serif" font-size="14.00">Counter#0.Get</text>
</g>
<!-- 0x140001917a0&#45;&gt;0x14000190d20 -->
<g id="edge9" class="edge">
<title>0x140001917a0&#45;&gt;0x14000190d20</title>
<path fill="none" stroke="black" d="M859.84,-202.23C932.06,-217.52 1004.96,-239.34 1026.51,-267.63 1048.4,-296.39 1048.88,-320.57 1026.51,-348.95 1001.88,-380.19 920.68,-402.04 839.25,-416.6"/>
<polygon fill="black" stroke="black" points="839.03,-413.09 829.78,-418.26 840.23,-419.98 839.03,-413.09"/>
<text xml:space="preserve" text-anchor="middle" x="1084.36" y="-303.24" font-family="Times,serif" font-size="14.00">Counter#0.Dec</text>
</g>
<!-- 0x140001917a0&#45;&gt;0x140001917a0 -->
<g id="edge4" class="edge">
<title>0x140001917a0&#45;&gt;0x140001917a0</title>
<path fill="none" stroke="black" d="M912.58,-183.32C926.57,-181.25 935.01,-178.3 935.01,-174.48 935.01,-171.79 930.84,-169.53 923.5,-167.71"/>
<polygon fill="black" stroke="black" points="924.54,-164.35 914.07,-165.91 923.23,-171.22 924.54,-164.35"/>
<text xml:space="preserve" text-anchor="middle" x="974.01" y="-169.43" font-family="Times,serif" font-size="14.00">Counter#0.Inc</text>
</g>
<!-- 0x1400028c420 -->
<g id="node5" class="node">
<title>0x1400028c420</title>
<ellipse fill="none" stroke="black" stroke-width="2" cx="793.51" cy="-40.66" rx="350.19" ry="40.66"/>
<text xml:space="preserve" text-anchor="middle" x="793.51" y="-52.11" font-family="Times,serif" font-size="14.00">yield</text>
<text xml:space="preserve" text-anchor="middle" x="793.51" y="-35.61" font-family="Times,serif" font-size="14.00">Actions: 4, Forks: 4</text>
<text xml:space="preserve" text-anchor="middle" x="793.51" y="-19.11" font-family="Times,serif" font-size="14.00">State: {&quot;counter&quot;:&quot;role Counter#0 (fields(value = 3))&quot;}Returns: {&quot;Counter#0.Get&quot;:&quot;3&quot;}</text>
</g>
<!-- 0x140001917a0&#45;&gt;0x1400028c420 -->
<g id="edge5" class="edge">
<title>0x140001917a0&#45;&gt;0x1400028c420</title>
<path fill="none" stroke="black" d="M754.52,-134.68C760.86,-128.92 766.71,-122.62 771.51,-115.82 776.3,-109.03 780.06,-101.19 783,-93.2"/>
<polygon fill="black" stroke="black" points="786.31,-94.34 786.07,-83.75 779.66,-92.18 786.31,-94.34"/>
<text xml:space="preserve" text-anchor="middle" x="819.85" y="-102.52" font-family="Times,serif" font-size="14.00">Counter#0.Get</text>
</g>
<!-- 0x1400028c420&#45;&gt;0x14000190d20 -->
<g id="edge8" class="edge">
<title>0x1400028c420&#45;&gt;0x14000190d20</title>
<path fill="none" stroke="black" d="M920.54,-79.44C955.52,-93.29 992.16,-111.25 1022.51,-133.82 1108.2,-197.54 1194.54,-264.25 1129.51,-348.95 1096.51,-391.93 978.13,-414.92 866.36,-427.2"/>
<polygon fill="black" stroke="black" points="866.29,-423.68 856.72,-428.23 867.04,-430.64 866.29,-423.68"/>
<text xml:space="preserve" text-anchor="middle" x="1182.68" y="-236.33" font-family="Times,serif" font-size="14.00">Counter#0.Dec</text>
</g>
<!-- 0x1400028c420&#45;&gt;0x140001917a0 -->
<g id="edge6" class="edge">
<title>0x1400028c420&#45;&gt;0x140001917a0</title>
<path fill="none" stroke="black" d="M704.82,-80.76C698.85,-86.22 693.59,-92.38 689.51,-99.32 685.55,-106.03 683.63,-113.71 683.01,-121.53"/>
<polygon fill="black" stroke="black" points="679.51,-121.44 682.94,-131.46 686.51,-121.48 679.51,-121.44"/>
<text xml:space="preserve" text-anchor="middle" x="728.51" y="-102.52" font-family="Times,serif" font-size="14.00">Counter#0.Inc</text>
</g>
<!-- 0x1400028c420&#45;&gt;0x1400028c420 -->
<g id="edge7" class="edge">
<title>0x1400028c420&#45;&gt;0x1400028c420</title>
<path fill="none" stroke="black" d="M1138.7,-48.24C1153.25,-46.29 1161.7,-43.76 1161.7,-40.66 1161.7,-38.48 1157.52,-36.58 1149.98,-34.97"/>
<polygon fill="black" stroke="black" points="1150.63,-31.53 1140.19,-33.33 1149.48,-38.43 1150.63,-31.53"/>
<text xml:space="preserve" text-anchor="middle" x="1201.83" y="-35.61" font-family="Times,serif" font-size="14.00">Counter#0.Get</text>
</g>
<!-- 0x14000191860&#45;&gt;0x14000190840 -->
<g id="edge13" class="edge">
<title>0x14000191860&#45;&gt;0x14000190840</title>
<path fill="none" stroke="black" d="M384.67,-343.68C295.58,-370.55 196.64,-417.9 143.01,-500.77 110.48,-551.03 146.81,-616.29 180.79,-660.2"/>
<polygon fill="black" stroke="black" points="177.85,-662.12 186.81,-667.77 183.33,-657.76 177.85,-662.12"/>
<text xml:space="preserve" text-anchor="middle" x="184.26" y="-503.97" font-family="Times,serif" font-size="14.00">Counter#0.Dec</text>
</g>
<!-- 0x14000191860&#45;&gt;0x140001917a0 -->
<g id="edge11" class="edge">
<title>0x14000191860&#45;&gt;0x140001917a0</title>
<path fill="none" stroke="black" d="M607.08,-267.03C619.84,-253.36 634.22,-237.94 647.5,-223.71"/>
<polygon fill="black" stroke="black" points="649.87,-226.3 654.13,-216.6 644.75,-221.53 649.87,-226.3"/>
<text xml:space="preserve" text-anchor="middle" x="677.37" y="-236.33" font-family="Times,serif" font-size="14.00">Counter#0.Inc</text>
</g>
<!-- 0x14000191860&#45;&gt;0x14000191860 -->
<g id="edge12" class="edge">
<title>0x14000191860&#45;&gt;0x14000191860</title>
<path fill="none" stroke="black" d="M914.7,-315.88C929.25,-313.92 937.7,-311.4 937.7,-308.29 937.7,-306.11 933.52,-304.21 925.98,-302.6"/>
<polygon fill="black" stroke="black" points="926.63,-299.16 916.19,-300.96 925.48,-306.06 926.63,-299.16"/>
<text xml:space="preserve" text-anchor="middle" x="977.83" y="-303.24" font-family="Times,serif" font-size="14.00">Counter#0.Get</text>
</g>
<!-- 0x14000190de0&#45;&gt;0x140001901e0 -->
<g id="edge18" class="edge">
<title>0x14000190de0&#45;&gt;0x140001901e0</title>
<path fill="none" stroke="black" d="M805.46,-612.78C987.71,-660.22 1243.68,-753.37 1132.51,-884.22 1089.47,-934.88 936.78,-957.75 801.27,-968.05"/>
<polygon fill="black" stroke="black" points="801.11,-964.55 791.39,-968.77 801.62,-971.53 801.11,-964.55"/>
<text xml:space="preserve" text-anchor="middle" x="1191.11" y="-771.6" font-family="Times,serif" font-size="14.00">Counter#0.Dec</text>
</g>
<!-- 0x14000190de0&#45;&gt;0x14000190d20 -->
<g id="edge16" class="edge">
<title>0x14000190de0&#45;&gt;0x14000190d20</title>
<path fill="none" stroke="black" d="M642.51,-534.3C642.51,-521.78 642.51,-507.83 642.51,-494.67"/>
<polygon fill="black" stroke="black" points="646.01,-494.89 642.51,-484.89 639.01,-494.89 646.01,-494.89"/>
<text xml:space="preserve" text-anchor="middle" x="681.51" y="-503.97" font-family="Times,serif" font-size="14.00">Counter#0.Inc</text>
</g>
<!-- 0x14000190de0&#45;&gt;0x14000190de0 -->
<g id="edge17" class="edge">
<title>0x14000190de0&#45;&gt;0x14000190de0</title>
<path fill="none" stroke="black" d="M987.7,-583.51C1002.25,-581.56 1010.7,-579.03 1010.7,-575.93 1010.7,-573.75 1006.52,-571.85 998.98,-570.24"/>
<polygon fill="black" stroke="black" points="999.63,-566.8 989.19,-568.59 998.48,-573.7 999.63,-566.8"/>
<text xml:space="preserve" text-anchor="middle" x="1050.83" y="-570.88" font-family="Times,serif" font-size="14.00">Counter#0.Get</text>
</g>
<!-- 0x14000190900&#45;&gt;0x140001901e0 -->
<g id="edge23" class="edge">
<title>0x14000190900&#45;&gt;0x140001901e0</title>
<path fill="none" stroke="black" d="M582.55,-883.67C576.51,-889.12 571.18,-895.27 567.01,-902.22 562.99,-908.9 561.02,-916.56 560.34,-924.36"/>
<polygon fill="black" stroke="black" points="556.84,-924.25 560.2,-934.29 563.84,-924.34 556.84,-924.25"/>
<text xml:space="preserve" text-anchor="middle" x="608.26" y="-905.42" font-family="Times,serif" font-size="14.00">Counter#0.Dec</text>
</g>
<!-- 0x14000190900&#45;&gt;0x14000190840 -->
<g id="edge21" class="edge">
<title>0x14000190900&#45;&gt;0x14000190840</title>
<path fill="none" stroke="black" d="M546.57,-804.88C485.91,-787.15 413.76,-766.06 353.14,-748.34"/>
<polygon fill="black" stroke="black" points="354.38,-745.06 343.8,-745.61 352.42,-751.78 354.38,-745.06"/>
<text xml:space="preserve" text-anchor="middle" x="516.01" y="-771.6" font-family="Times,serif" font-size="14.00">Counter#0.Inc</text>
</g>
<!-- 0x14000190900&#45;&gt;0x14000190900 -->
<g id="edge22" class="edge">
<title>0x14000190900&#45;&gt;0x14000190900</title>
<path fill="none" stroke="black" d="M1020.7,-851.15C1035.25,-849.19 1043.7,-846.67 1043.7,-843.56 1043.7,-841.38 1039.52,-839.48 1031.98,-837.87"/>
<polygon fill="black" stroke="black" points="1032.63,-834.43 1022.19,-836.23 1031.48,-841.33 1032.63,-834.43"/>
<text xml:space="preserve" text-anchor="middle" x="1083.83" y="-838.51" font-family="Times,serif" font-size="14.00">Counter#0.Get</text>
</g>
</g>
</svg>
